# xmcd
#
# Track frame offsets: 
#        150
#        24039
#        51619
#        75169
#        100214
#        126266
#        147849
#        168850
#        192492
#        213830
#        237188
#        258085
#        291811
#        312350
#        329723
#        353071
#        377005
#        401542
#
# Disc length: 5714 seconds
#
# Revision: 0
# Processed by: cddbd v1.5.2PL0 Copyright (c) Steve Scherf et al.
# Submitted via: ExactAudioCopy v1.0b3
#
DISCID=fe165012
DTITLE=Various Artist - Ca khuc thinh hanh
DYEAR=1971
DGENRE=
TTITLE0=Duy Khanh, Thanh Tuyen, Bach Quyen - Loi gioi thieu, Hom nay n
TTITLE0=gay mai
TTITLE1=Huong Lan - Nhung con duong trang
TTITLE2=Truc Mai - Han Mac Tu
TTITLE3=Thai Thanh - Tieng hat tren song
TTITLE4=Anh Khoa - Buon ga nho
TTITLE5=Thanh Thuy - Tinh ca que huong
TTITLE6=Thuy Khanh - Mot minh thoi
TTITLE7=Khanh Ly - Nguoi hung co don
TTITLE8=Duy Khanh - Vung truoc mat
TTITLE9=Thai Thanh - Tinh tu tin
TTITLE10=Huong Lan - Tinh tham duyen que
TTITLE11=Hoang Oanh - Mua tren pho Hue
TTITLE12=Si Phu - Son nu ca
TTITLE13=Thanh Thuy - Nguoi xom cu
TTITLE14=Bang Chau - Nho nhau hoai
TTITLE15=Thanh Lan - Xin diu nhau den tinh yeu
TTITLE16=Duy Khanh - Suong trang mien que ngoai
TTITLE17=Thai Thanh - Vo chong que
EXTD=
EXTT0=
EXTT1=
EXTT2=
EXTT3=
EXTT4=
EXTT5=
EXTT6=
EXTT7=
EXTT8=
EXTT9=
EXTT10=
EXTT11=
EXTT12=
EXTT13=
EXTT14=
EXTT15=
EXTT16=
EXTT17=
PLAYORDER=
